<svg xmlns="http://www.w3.org/2000/svg" xmlns:xlink="http://www.w3.org/1999/xlink" width="320" zoomAndPan="magnify" viewBox="0 0 240 239.999995" height="320" preserveAspectRatio="xMidYMid meet" version="1.0"><defs><g/><clipPath id="19f3d2ff66"><path d="M 156.347656 104.738281 L 201.8125 104.738281 L 201.8125 156.519531 L 156.347656 156.519531 Z M 156.347656 104.738281 " clip-rule="nonzero"/></clipPath><clipPath id="c47070e251"><path d="M 201.230469 131.332031 L 157.652344 156.238281 C 157.382812 156.390625 157.050781 156.390625 156.78125 156.234375 C 156.511719 156.078125 156.347656 155.792969 156.347656 155.480469 L 156.347656 105.699219 C 156.347656 105.386719 156.511719 105.101562 156.78125 104.945312 C 157.050781 104.789062 157.382812 104.789062 157.652344 104.941406 L 201.230469 129.84375 C 201.5 129.996094 201.664062 130.28125 201.664062 130.589844 C 201.664062 130.898438 201.5 131.179688 201.230469 131.332031 Z M 201.230469 131.332031 " clip-rule="nonzero"/></clipPath><clipPath id="9a99a7d987"><path d="M 0.347656 0.738281 L 45.8125 0.738281 L 45.8125 52.480469 L 0.347656 52.480469 Z M 0.347656 0.738281 " clip-rule="nonzero"/></clipPath><clipPath id="9c5b4fc03d"><path d="M 45.230469 27.332031 L 1.652344 52.238281 C 1.382812 52.390625 1.050781 52.390625 0.78125 52.234375 C 0.511719 52.078125 0.347656 51.792969 0.347656 51.480469 L 0.347656 1.699219 C 0.347656 1.386719 0.511719 1.101562 0.78125 0.945312 C 1.050781 0.789062 1.382812 0.789062 1.652344 0.941406 L 45.230469 25.84375 C 45.5 25.996094 45.664062 26.28125 45.664062 26.589844 C 45.664062 26.898438 45.5 27.179688 45.230469 27.332031 Z M 45.230469 27.332031 " clip-rule="nonzero"/></clipPath><clipPath id="807eac020f"><rect x="0" width="46" y="0" height="53"/></clipPath><clipPath id="9ee1efd517"><path d="M 60 33 L 114.800781 33 L 114.800781 110 L 60 110 Z M 60 33 " clip-rule="nonzero"/></clipPath><clipPath id="d691354dbd"><rect x="0" width="115" y="0" height="144"/></clipPath></defs><g clip-path="url(#19f3d2ff66)"><g clip-path="url(#c47070e251)"><g transform="matrix(1, 0, 0, 1, 156, 104)"><g clip-path="url(#807eac020f)"><g clip-path="url(#9a99a7d987)"><g clip-path="url(#9c5b4fc03d)"><path fill="#d1a442" d="M 46.535156 0.199219 L 46.535156 53.058594 L 0.347656 53.058594 L 0.347656 0.199219 Z M 46.535156 0.199219 " fill-opacity="1" fill-rule="nonzero"/></g></g></g></g></g></g><g transform="matrix(1, 0, 0, 1, 34, 46)"><g clip-path="url(#d691354dbd)"><g fill="#d1a442" fill-opacity="1"><g transform="translate(0.395059, 107.220212)"><g><path d="M 30.46875 2.695312 C 25.480469 2.695312 21 1.804688 17.027344 0.0195312 C 12.988281 -1.796875 9.804688 -4.335938 7.484375 -7.589844 C 5.136719 -10.890625 3.921875 -14.6875 3.847656 -18.980469 L 3.8125 -20.996094 L 17.535156 -20.996094 L 17.714844 -19.21875 C 18.007812 -16.367188 19.183594 -13.96875 21.246094 -12.023438 C 23.285156 -10.101562 26.359375 -9.136719 30.46875 -9.136719 C 34.40625 -9.136719 37.464844 -10.085938 39.648438 -11.976562 C 41.75 -13.796875 42.800781 -16.144531 42.800781 -19.015625 C 42.800781 -21.246094 42.214844 -23.023438 41.042969 -24.355469 C 39.757812 -25.816406 38.136719 -26.933594 36.183594 -27.703125 C 34.003906 -28.5625 31.042969 -29.492188 27.296875 -30.496094 C 22.503906 -31.746094 18.644531 -33.007812 15.722656 -34.273438 C 12.582031 -35.636719 9.898438 -37.765625 7.679688 -40.664062 C 5.398438 -43.640625 4.253906 -47.570312 4.253906 -52.449219 C 4.253906 -56.730469 5.351562 -60.535156 7.546875 -63.867188 C 9.734375 -67.183594 12.789062 -69.738281 16.710938 -71.53125 C 20.550781 -73.285156 24.933594 -74.164062 29.855469 -74.164062 C 36.988281 -74.164062 42.867188 -72.351562 47.484375 -68.730469 C 52.191406 -65.042969 54.84375 -60.15625 55.445312 -54.074219 L 55.660156 -51.898438 L 41.5 -51.898438 L 41.28125 -53.636719 C 41.007812 -55.839844 39.808594 -57.816406 37.695312 -59.558594 C 35.539062 -61.335938 32.617188 -62.226562 28.933594 -62.226562 C 25.519531 -62.226562 22.769531 -61.371094 20.679688 -59.660156 C 18.710938 -58.042969 17.726562 -55.742188 17.726562 -52.757812 C 17.726562 -50.671875 18.289062 -49 19.417969 -47.738281 C 20.675781 -46.335938 22.234375 -45.265625 24.09375 -44.527344 C 26.175781 -43.699219 29.125 -42.75 32.945312 -41.679688 C 37.734375 -40.359375 41.605469 -39.050781 44.558594 -37.75 C 47.726562 -36.355469 50.433594 -34.214844 52.683594 -31.328125 C 55.007812 -28.34375 56.167969 -24.378906 56.167969 -19.425781 C 56.167969 -15.582031 55.15625 -11.972656 53.125 -8.589844 C 51.097656 -5.207031 48.113281 -2.476562 44.171875 -0.394531 C 40.269531 1.667969 35.703125 2.695312 30.46875 2.695312 Z M 30.46875 -1.265625 C 35.046875 -1.265625 39 -2.144531 42.324219 -3.898438 C 45.609375 -5.636719 48.078125 -7.878906 49.726562 -10.628906 C 51.378906 -13.382812 52.207031 -16.316406 52.207031 -19.425781 C 52.207031 -23.46875 51.324219 -26.625 49.558594 -28.890625 C 47.71875 -31.253906 45.519531 -32.996094 42.960938 -34.125 C 40.1875 -35.347656 36.492188 -36.59375 31.875 -37.863281 C 27.921875 -38.972656 24.84375 -39.964844 22.632812 -40.84375 C 20.195312 -41.8125 18.140625 -43.226562 16.46875 -45.09375 C 14.664062 -47.105469 13.765625 -49.660156 13.765625 -52.757812 C 13.765625 -56.992188 15.234375 -60.316406 18.171875 -62.722656 C 20.988281 -65.035156 24.578125 -66.1875 28.933594 -66.1875 C 33.566406 -66.1875 37.324219 -65 40.214844 -62.617188 C 43.140625 -60.203125 44.808594 -57.375 45.214844 -54.125 L 43.246094 -53.878906 L 43.246094 -55.863281 L 53.472656 -55.863281 L 53.472656 -53.878906 L 51.5 -53.6875 C 51.011719 -58.644531 48.859375 -62.621094 45.042969 -65.613281 C 41.140625 -68.671875 36.078125 -70.199219 29.855469 -70.199219 C 25.507812 -70.199219 21.675781 -69.441406 18.359375 -67.925781 C 15.125 -66.449219 12.625 -64.367188 10.855469 -61.683594 C 9.097656 -59.015625 8.21875 -55.9375 8.21875 -52.449219 C 8.21875 -48.46875 9.085938 -45.339844 10.824219 -43.074219 C 12.628906 -40.71875 14.785156 -39 17.300781 -37.910156 C 20.035156 -36.722656 23.710938 -35.527344 28.320312 -34.324219 C 32.210938 -33.28125 35.316406 -32.304688 37.636719 -31.390625 C 40.179688 -30.386719 42.308594 -28.914062 44.019531 -26.972656 C 45.847656 -24.894531 46.761719 -22.242188 46.761719 -19.015625 C 46.761719 -14.9375 45.257812 -11.59375 42.246094 -8.984375 C 39.316406 -6.445312 35.390625 -5.175781 30.46875 -5.175781 C 25.308594 -5.175781 21.328125 -6.496094 18.527344 -9.140625 C 15.75 -11.761719 14.164062 -14.988281 13.773438 -18.816406 L 15.746094 -19.015625 L 15.746094 -17.035156 L 5.828125 -17.035156 L 5.828125 -19.015625 L 7.808594 -19.050781 C 7.871094 -15.574219 8.835938 -12.523438 10.710938 -9.890625 C 12.617188 -7.21875 15.265625 -5.121094 18.652344 -3.597656 C 22.109375 -2.042969 26.046875 -1.265625 30.46875 -1.265625 Z M 30.46875 -1.265625 "/></g></g></g><g clip-path="url(#9ee1efd517)"><g fill="#d1a442" fill-opacity="1"><g transform="translate(54.258202, 107.220212)"><g><path d="M 43.683594 0.996094 L 26.710938 -28.140625 L 28.421875 -29.136719 L 28.421875 -27.15625 L 17.175781 -27.15625 L 17.175781 -29.136719 L 19.15625 -29.136719 L 19.15625 1.980469 L 5.890625 1.980469 L 5.890625 -73.242188 L 30.875 -73.242188 C 36.570312 -73.242188 41.414062 -72.253906 45.40625 -70.277344 C 49.472656 -68.261719 52.527344 -65.515625 54.566406 -62.039062 C 56.589844 -58.59375 57.601562 -54.683594 57.601562 -50.300781 C 57.601562 -44.953125 56.050781 -40.226562 52.957031 -36.125 C 49.832031 -31.984375 45.203125 -29.25 39.066406 -27.917969 L 38.648438 -29.855469 L 40.347656 -30.871094 L 60.035156 1.980469 L 44.257812 1.980469 Z M 47.105469 -0.996094 L 45.394531 0 L 45.394531 -1.980469 L 56.539062 -1.980469 L 56.539062 0 L 54.839844 1.019531 L 35.527344 -31.207031 L 38.226562 -31.789062 C 43.40625 -32.914062 47.261719 -35.152344 49.792969 -38.511719 C 52.355469 -41.90625 53.636719 -45.835938 53.636719 -50.300781 C 53.636719 -53.964844 52.808594 -57.210938 51.148438 -60.035156 C 49.507812 -62.832031 47.007812 -65.0625 43.644531 -66.726562 C 40.207031 -68.429688 35.953125 -69.28125 30.875 -69.28125 L 7.871094 -69.28125 L 7.871094 -71.261719 L 9.855469 -71.261719 L 9.855469 0 L 7.871094 0 L 7.871094 -1.980469 L 17.175781 -1.980469 L 17.175781 0 L 15.195312 0 L 15.195312 -31.121094 L 29.5625 -31.121094 Z M 17.175781 -38.582031 L 30.875 -38.582031 C 35.378906 -38.582031 38.699219 -39.636719 40.835938 -41.746094 C 42.960938 -43.84375 44.027344 -46.695312 44.027344 -50.300781 C 44.027344 -53.953125 42.992188 -56.742188 40.925781 -58.667969 C 38.820312 -60.632812 35.46875 -61.613281 30.875 -61.613281 L 17.175781 -61.613281 L 17.175781 -63.59375 L 19.15625 -63.59375 L 19.15625 -36.601562 L 17.175781 -36.601562 Z M 15.195312 -34.621094 L 15.195312 -65.574219 L 30.875 -65.574219 C 36.507812 -65.574219 40.757812 -64.238281 43.625 -61.566406 C 46.535156 -58.859375 47.988281 -55.101562 47.988281 -50.300781 C 47.988281 -45.59375 46.53125 -41.800781 43.617188 -38.921875 C 40.710938 -36.054688 36.460938 -34.621094 30.875 -34.621094 Z M 15.195312 -34.621094 "/></g></g></g></g><g fill="#d1a442" fill-opacity="1"><g transform="translate(0.395059, 107.220212)"><g><path d="M 30.46875 0.71875 C 25.757812 0.71875 21.546875 -0.113281 17.828125 -1.78125 C 14.117188 -3.457031 11.207031 -5.773438 9.09375 -8.734375 C 6.976562 -11.703125 5.890625 -15.128906 5.828125 -19.015625 L 15.75 -19.015625 C 16.082031 -15.671875 17.457031 -12.859375 19.875 -10.578125 C 22.300781 -8.296875 25.832031 -7.15625 30.46875 -7.15625 C 34.894531 -7.15625 38.382812 -8.257812 40.9375 -10.46875 C 43.5 -12.6875 44.78125 -15.535156 44.78125 -19.015625 C 44.78125 -21.742188 44.03125 -23.957031 42.53125 -25.65625 C 41.03125 -27.363281 39.15625 -28.660156 36.90625 -29.546875 C 34.65625 -30.429688 31.625 -31.382812 27.8125 -32.40625 C 23.101562 -33.632812 19.332031 -34.859375 16.5 -36.078125 C 13.675781 -37.304688 11.257812 -39.234375 9.25 -41.859375 C 7.238281 -44.484375 6.234375 -48.015625 6.234375 -52.453125 C 6.234375 -56.335938 7.222656 -59.773438 9.203125 -62.765625 C 11.179688 -65.765625 13.957031 -68.082031 17.53125 -69.71875 C 21.113281 -71.351562 25.222656 -72.171875 29.859375 -72.171875 C 36.535156 -72.171875 42.003906 -70.5 46.265625 -67.15625 C 50.523438 -63.820312 52.925781 -59.394531 53.46875 -53.875 L 43.25 -53.875 C 42.90625 -56.601562 41.472656 -59.003906 38.953125 -61.078125 C 36.429688 -63.160156 33.09375 -64.203125 28.9375 -64.203125 C 25.050781 -64.203125 21.878906 -63.195312 19.421875 -61.1875 C 16.972656 -59.175781 15.75 -56.363281 15.75 -52.75 C 15.75 -50.164062 16.476562 -48.050781 17.9375 -46.40625 C 19.40625 -44.769531 21.210938 -43.523438 23.359375 -42.671875 C 25.503906 -41.828125 28.519531 -40.859375 32.40625 -39.765625 C 37.113281 -38.472656 40.894531 -37.195312 43.75 -35.9375 C 46.613281 -34.675781 49.066406 -32.734375 51.109375 -30.109375 C 53.160156 -27.484375 54.1875 -23.921875 54.1875 -19.421875 C 54.1875 -15.941406 53.265625 -12.671875 51.421875 -9.609375 C 49.578125 -6.546875 46.847656 -4.054688 43.234375 -2.140625 C 39.628906 -0.234375 35.375 0.71875 30.46875 0.71875 Z M 30.46875 0.71875 "/></g></g></g><g fill="#d1a442" fill-opacity="1"><g transform="translate(54.258202, 107.220212)"><g><path d="M 45.390625 0 L 28.421875 -29.140625 L 17.171875 -29.140625 L 17.171875 0 L 7.875 0 L 7.875 -71.25 L 30.875 -71.25 C 36.257812 -71.25 40.804688 -70.328125 44.515625 -68.484375 C 48.234375 -66.648438 51.007812 -64.164062 52.84375 -61.03125 C 54.6875 -57.894531 55.609375 -54.316406 55.609375 -50.296875 C 55.609375 -45.390625 54.191406 -41.0625 51.359375 -37.3125 C 48.535156 -33.5625 44.296875 -31.078125 38.640625 -29.859375 L 56.53125 0 Z M 17.171875 -36.59375 L 30.875 -36.59375 C 35.914062 -36.59375 39.695312 -37.835938 42.21875 -40.328125 C 44.738281 -42.816406 46 -46.140625 46 -50.296875 C 46 -54.523438 44.753906 -57.796875 42.265625 -60.109375 C 39.785156 -62.429688 35.988281 -63.59375 30.875 -63.59375 L 17.171875 -63.59375 Z M 17.171875 -36.59375 "/></g></g></g></g></g></svg>